<svg xmlns="http://www.w3.org/2000/svg" width="16" height="16" viewBox="0 0 128 128" role="img" aria-label="OptiShield icon">
  <defs>
    <radialGradient id="bg" cx="28%" cy="18%" r="90%"><stop offset="0" stop-color="#1e3a8a"/><stop offset=".48" stop-color="#0f172a"/><stop offset="1" stop-color="#020617"/></radialGradient>
    <linearGradient id="shield" x1="20" y1="14" x2="108" y2="118" gradientUnits="userSpaceOnUse"><stop offset="0" stop-color="#67e8f9"/><stop offset=".48" stop-color="#5eead4"/><stop offset="1" stop-color="#8b5cf6"/></linearGradient>
    <linearGradient id="flare" x1="34" y1="35" x2="96" y2="88" gradientUnits="userSpaceOnUse"><stop offset="0" stop-color="#f8fafc" stop-opacity=".95"/><stop offset="1" stop-color="#22d3ee" stop-opacity=".16"/></linearGradient>
    <filter id="glow" x="-40%" y="-40%" width="180%" height="180%"><feGaussianBlur stdDeviation="3.4" result="blur"/><feColorMatrix in="blur" values="0 0 0 0 0.36 0 0 0 0 0.92 0 0 0 0 0.86 0 0 0 .8 0"/><feBlend in="SourceGraphic"/></filter>
  </defs>
  <rect width="128" height="128" rx="30" fill="url(#bg)"/>
  <path d="M64 12l43 16v31c0 28-17.5 48.5-43 58-25.5-9.5-43-30-43-58V28l43-16z" fill="url(#shield)" filter="url(#glow)"/>
  <path d="M64 22l32 12v25c0 21-12 36-32 45-20-9-32-24-32-45V34l32-12z" fill="#020617" opacity=".78"/>
  <path d="M29 64c10.5-17 22-25.5 35-25.5S88.5 47 99 64C88.5 80.5 77 88.5 64 88.5S39.5 80.5 29 64z" fill="url(#flare)"/>
  <circle cx="64" cy="64" r="13" fill="#0f172a"/><circle cx="64" cy="64" r="7" fill="#e0f2fe"/>
  <path d="M20 43h88M24 83h80M37 28l-9-9M91 28l9-9M44 101l-8 11M84 101l8 11" stroke="#a5f3fc" stroke-width="4.5" stroke-linecap="round" opacity=".56"/>
  <path d="M18 58c16 3 31 3 46 0s31-3 46 0M18 70c16-3 31-3 46 0s31 3 46 0" stroke="#c4b5fd" stroke-width="2.5" stroke-linecap="round" opacity=".72"/>
</svg>
